<?xml version="1.0" encoding="UTF-8" standalone="no"?>
<!-- Copyright 2017 mathsisfun.com -->
<svg xmlns="http://www.w3.org/2000/svg" width="360.1" height="122.6" version="1.1" style="font-family:'Comic Sans MS'; font-size:19.5px; fill:#fd3301; stroke-width:1.1;">
<defs>
</defs>
<g transform="translate(328.873,-2004.67)">
	<circle cx="-37" cy="2063" r="17.6615" style="fill:#eec73e; fill-opacity:0.32;"/>
	<rect x="2038.7" y="146.9" rx="10.6" ry="19.4" width="88.6" height="27.3" transform="rotate(90)" style="fill:#eec73e; fill-opacity:0.32;"/>
	<rect x="-319" y="2052.5" rx="10.9" ry="16.4" width="91" height="23.2" style="fill:#eec73e; fill-opacity:0.32;"/>
	<path style="fill:#0169c9; stroke:#636466; stroke-width:0.13; stroke-linejoin:round;" d="m -318.5,2053.9 c -2.6,-0.3 -5.7,-0.2 -8.1,-0.3 2.8,-2 0.3,6.9 1.1,8.9 -0.5,13.2 -0.6,27 -0.4,39.9 -0.5,-0.4 3.1,-0.1 4.1,-0.2 1.8,0.2 4.4,-0.9 3.4,2.2 -1,1.4 -4.4,0.1 -6.3,0.5 -4.6,1 -4.4,-4.4 -4.1,-7.5 -0.1,-15.2 0.3,-30.5 0.6,-45.7 2.6,-2 6.7,-0.4 9.8,-0.6 -0.1,0.9 -0.2,1.8 -0.4,2.7 z"/>
	<path style="fill:#0169c9; stroke:#636466; stroke-width:0.13; stroke-linejoin:round;" d="m -227.4,2053.7 c 2.6,-0.3 5.7,-0.1 8.1,-0.2 -2.6,-2.1 -0.5,6.1 -1.3,8.1 0.3,13.2 -0,28.5 -0.4,40.7 -0.8,-0.3 -4.1,-0.1 -5.7,-0.2 -2,-1.3 -2.9,2.5 -1.3,2.6 3.1,-0.4 7.6,1.6 9.5,-1.5 1,-17.1 0.6,-34.3 0.6,-51.4 -2.5,-2.1 -6.7,-0.5 -9.8,-0.8 0.1,0.9 0.2,1.9 0.3,2.7 z"/>
	<text x="-312.6" y="2098.4" style="font-weight:900;">4</text>
	<text x="-313" y="2070.9" style="font-weight:900;">1</text>
	<text x="-281.1" y="2070.9" style="font-weight:900;">2</text>
	<text x="-248.1" y="2098.4" style="font-weight:900;">6</text>
	<text x="-250.3" y="2070.9" style="font-weight:900;">3</text>
	<text x="-281.4" y="2098.4" style="font-weight:900;">5</text>
	<text x="-135" y="2061.7" style="font-weight:900;">8</text>
	<text x="-166.6" y="2061.7" style="font-weight:900;">7</text>
	<text x="-166.4" y="2089.7" style="font-weight:900;">9</text>
	<text x="-141.6" y="2118.1" style="font-weight:900;">12</text>
	<text x="-172.2" y="2118.1" style="font-weight:900;">11</text>
	<text x="-142" y="2089.7" style="font-weight:900;">10</text>
	<path style="fill:#0169c9; stroke:#636466; stroke-width:0.13; stroke-linejoin:round;" d="m -173.1,2041 c -2.8,0.6 -6.9,-1.6 -8.8,1 0.5,13.2 0,26.4 -0.5,39.6 0.4,13.6 -0.3,27.3 0.5,40.9 2.3,2.2 6.3,1 9.3,1.4 1.8,-4 -3.2,-1.8 -5.3,-2.5 -1.5,-0.5 -2.6,0.1 -1.5,0.3 -0.5,-16.5 -0.5,-33.1 -0.1,-49.6 0.7,-9.8 0.5,-19.7 0.2,-29.5 -2.5,1.2 2.7,0.5 3.7,0.8 2.1,0.1 3.2,0.5 2.6,-2.3 z"/>
	<path style="fill:#0169c9; stroke:#636466; stroke-width:0.13; stroke-linejoin:round;" d="m -118.1,2041 c 2.8,0.6 6.9,-1.5 8.8,1.1 -0.7,13.2 -0.3,26.4 0.1,39.6 -0.6,13.6 0,27.3 -0.9,40.8 -2.4,2.2 -6.3,0.9 -9.3,1.3 -1.8,-4 3.2,-1.8 5.3,-2.5 1.5,-0.5 2.6,0.2 1.5,0.3 0.6,-16.8 0.9,-33.6 0.6,-50.5 -0.6,-9.6 -0.2,-19.1 0.2,-28.7 2.5,1.2 -2.7,0.5 -3.7,0.8 -2.1,0.1 -3.2,0.5 -2.6,-2.4 z"/>
	<text x="-206.9" y="2085.5" style="font-weight:bold; font-size:24.7px; fill:#0197fd;">x</text>
	<text x="-96.3" y="2092.7" style="font-size:32.1px; fill:#0197fd;">=</text>
	<path style="fill:#0169c9; stroke:#636466; stroke-width:0.13; stroke-linejoin:round;" d="m -53.1,2053.9 c -2.6,-0.3 -5.7,-0.2 -8.1,-0.3 2.8,-2 0.3,6.9 1.1,8.9 -0.5,13.2 -0.6,27 -0.4,39.9 -0.5,-0.4 3.1,-0.1 4.1,-0.2 1.8,0.2 4.4,-0.9 3.4,2.2 -1,1.4 -4.4,0.1 -6.3,0.5 -4.6,1 -4.4,-4.4 -4.1,-7.5 -0.1,-15.2 0.3,-30.5 0.7,-45.7 2.6,-2 6.7,-0.4 9.8,-0.6 -0.1,0.9 -0.2,1.8 -0.3,2.7 z"/>
	<path style="fill:#0169c9; stroke:#636466; stroke-width:0.13; stroke-linejoin:round;" d="m 21.5,2054.6 c 2.6,-0.3 5.7,-0.1 8.1,-0.2 -2.7,-2 -0.4,6.9 -1.3,8.9 0.2,13.2 0,27 -0.4,39.9 0.5,-0.4 -3.1,-0.1 -4.1,-0.3 -1.8,0.2 -4.4,-1 -3.5,2.1 0.9,1.4 4.2,0.3 6,0.7 3.4,1 5.1,-2.4 4.5,-5.4 0.4,-15.9 0.4,-31.8 0.3,-47.6 -2.5,-2.1 -6.7,-0.5 -9.8,-0.8 0.1,0.9 0.2,1.8 0.3,2.7 z"/>
	<text x="-47.7" y="2070.9" style="font-weight:900;">58</text>
	<path style="fill:#eec73e;" d="m -287.5,2053.1 c 9.4,-13.6 25.5,-20.8 40.9,-25.4 24.2,-6.7 50.9,-6.5 74,4.1 3.7,1.3 15.3,6.3 8.5,8.3 -19.2,-11 -41.9,-15.7 -63.9,-12.5 -20.2,2.7 -41.5,9.5 -55.2,25.3 -1.1,3.2 -2.4,0.7 -4.4,0 z"/>
	<path style="fill:#eec73e;" d="m -163.3,2039.1 c 11.8,-11.6 29.2,-15.4 45.3,-16.5 23.4,-1.2 47.5,4.5 66.3,18.8 3.5,1.7 14.4,11 6.8,10.2 -16,-14.9 -37.1,-24.1 -59,-25.2 -19,-1.3 -39.9,1.3 -55.2,13.5 -1.7,2.9 -2.4,0.2 -4.1,-0.9 z"/>
	<path style="fill:#eec73e;" d="m -60.2,2045.1 c 0.2,-0.1 0.3,-0.1 0.5,-0.2 0.2,0 0.4,-0.1 0.5,-0.1 0.2,0 0.4,-0.1 0.6,-0.1 0.2,0 0.5,-0.1 0.7,-0.1 0.3,0 0.5,-0.1 0.8,-0.1 0.3,0 0.5,0 0.8,0 0.3,0 0.5,0 0.8,0 0.3,0 0.6,0 0.8,0.1 0.3,0 0.6,0.1 0.8,0.1 0.3,0 0.5,0.1 0.8,0.1 0.3,0 0.5,0.1 0.8,0.2 0.3,0.1 0.6,0.1 0.8,0.2 0.3,0.1 0.6,0.1 0.8,0.2 0.3,0.1 0.5,0.2 0.8,0.2 0.2,0.1 0.5,0.1 0.7,0.2 0.2,0.1 0.4,0.1 0.7,0.2 0.2,0.1 0.4,0.1 0.6,0.2 0.2,0 0.4,0.1 0.6,0.2 0.2,0 0.3,0.1 0.5,0.2 0.2,0 0.3,0.1 0.5,0.1 0.1,0 0.3,0.1 0.4,0.1 0.1,0 0.3,0.1 0.4,0.1 0.1,0 0.3,0.1 0.4,0.1 0.1,0 0.3,0.1 0.4,0.1 0.1,0 0.3,0.1 0.4,0.1 0.1,0 0.3,0.1 0.4,0.1 0.1,0 0.3,0.1 0.4,0.1 0.1,0 0.2,0.1 0.3,0.1 0.1,0 0.2,0.1 0.3,0.1 0,0 0.2,0.1 0.3,0.1 0,0 0.2,0.1 0.2,0.1 0,0 0.1,0 0.2,0.1 0,0 -1.1,3.5 -1.1,3.5 v 0 c -0,0 -0.1,0 -0.2,-0.1 -0.1,0 -0.2,-0.1 -0.3,-0.1 -0.1,0 -0.2,-0.1 -0.3,-0.1 -0.1,0 -0.2,-0.1 -0.3,-0.1 -0.1,0 -0.2,-0.1 -0.3,-0.1 -0.1,0 -0.2,-0.1 -0.3,-0.1 -0.1,0 -0.2,-0.1 -0.3,-0.1 -0.1,0 -0.2,-0.1 -0.3,-0.1 -0.1,0 -0.2,-0.1 -0.3,-0.1 -0.1,0 -0.2,-0.1 -0.4,-0.1 -0.1,0 -0.3,-0.1 -0.4,-0.1 -0.1,-0.1 -0.3,-0.1 -0.4,-0.1 -0.2,-0.1 -0.3,-0.1 -0.5,-0.1 -0.2,-0.1 -0.3,-0.1 -0.5,-0.2 -0.2,0 -0.4,-0.1 -0.6,-0.2 -0.2,-0.1 -0.4,-0.1 -0.6,-0.2 -0.2,-0.1 -0.4,-0.1 -0.7,-0.2 -0.2,-0.1 -0.5,-0.1 -0.7,-0.2 -0.2,-0.1 -0.5,-0.1 -0.7,-0.2 -0.2,-0.1 -0.5,-0.1 -0.7,-0.2 -0.2,-0.1 -0.5,-0.1 -0.7,-0.2 -0.2,0 -0.5,-0.1 -0.7,-0.1 -0.2,0 -0.5,-0.1 -0.7,-0.1 -0.2,0 -0.5,-0.1 -0.7,-0.1 -0.2,0 -0.5,-0.1 -0.7,-0.1 -0.2,0 -0.4,0 -0.6,0 -0.2,0 -0.4,0 -0.6,0 -0.2,0 -0.4,0 -0.5,0 -0.2,0 -0.4,0 -0.6,0.1 -0.1,0 -0.3,0.1 -0.4,0.1 -0,0 -0.2,0 -0.3,0.1 -0,0 -0.2,0 -0.2,0.1 0,0 -1.3,-3.4 -1.3,-3.4 z"/>
	<path style="fill:#eec73e;" d="m -47.6,2037.3 c 0,0.1 0,0.2 0,0.2 0,0.1 0,0.2 0,0.3 0,0.1 0,0.3 0,0.4 0,0.1 0,0.3 0.1,0.4 0,0.2 0,0.3 0.1,0.4 0,0.2 0.1,0.3 0.2,0.5 0,0.2 0.1,0.3 0.2,0.5 0,0.2 0.2,0.4 0.2,0.6 0,0.2 0.2,0.4 0.2,0.5 0,0.2 0.2,0.4 0.3,0.6 0.1,0.2 0.2,0.4 0.3,0.6 0.1,0.2 0.2,0.4 0.3,0.6 0.1,0.2 0.2,0.4 0.3,0.6 0.1,0.2 0.2,0.3 0.3,0.5 0.1,0.2 0.2,0.3 0.3,0.5 0,0.2 0.2,0.3 0.3,0.4 0.1,0.2 0.2,0.3 0.3,0.5 0.1,0.1 0.2,0.3 0.3,0.4 0.1,0.1 0.2,0.3 0.3,0.4 0.1,0.1 0.2,0.3 0.3,0.4 0.1,0.1 0.2,0.3 0.3,0.4 0,0.1 0.2,0.3 0.3,0.4 0,0.1 0.2,0.3 0.3,0.4 0,0.1 0.2,0.2 0.3,0.3 0,0.1 0.2,0.2 0.2,0.3 0,0.1 0.1,0.2 0.2,0.3 0,0.1 0.1,0.2 0.2,0.3 0,0.1 0.1,0.2 0.2,0.3 0,0.1 0,0 0,0.1 0,0 -3,2.1 -3,2.1 v 0 c -0,-0.1 0,0.1 -0,-0.1 -0,-0.1 -0.1,-0.2 -0.2,-0.3 -0,-0.1 -0.1,-0.2 -0.2,-0.3 -0,-0.1 -0.1,-0.2 -0.2,-0.3 -0,-0.1 -0.2,-0.2 -0.2,-0.3 -0,-0.1 -0.2,-0.2 -0.3,-0.4 -0,-0.1 -0.2,-0.2 -0.3,-0.4 -0.1,-0.1 -0.2,-0.3 -0.3,-0.4 -0.1,-0.1 -0.2,-0.3 -0.3,-0.4 -0.1,-0.1 -0.2,-0.3 -0.3,-0.4 -0.1,-0.2 -0.2,-0.3 -0.3,-0.4 -0.1,-0.2 -0.2,-0.3 -0.3,-0.5 -0.1,-0.2 -0.2,-0.3 -0.3,-0.5 -0.1,-0.2 -0.2,-0.4 -0.4,-0.5 -0.1,-0.2 -0.2,-0.4 -0.3,-0.5 -0.1,-0.2 -0.2,-0.4 -0.3,-0.6 -0.1,-0.2 -0.2,-0.4 -0.3,-0.6 -0.1,-0.2 -0.2,-0.4 -0.3,-0.6 -0.1,-0.2 -0.2,-0.5 -0.3,-0.7 -0.1,-0.2 -0.2,-0.4 -0.3,-0.7 -0.1,-0.2 -0.2,-0.4 -0.3,-0.6 -0,-0.2 -0.2,-0.4 -0.2,-0.6 -0,-0.2 -0.2,-0.4 -0.2,-0.6 -0,-0.2 -0.2,-0.4 -0.2,-0.6 -0,-0.2 -0.1,-0.4 -0.2,-0.6 -0,-0.2 -0.1,-0.4 -0.2,-0.6 -0,-0.2 -0,-0.3 -0.1,-0.5 -0,-0.2 -0,-0.3 -0.1,-0.5 -0,-0.2 -0,-0.3 -0,-0.5 0,0 3.6,-0.3 3.6,-0.3 z"/>
	<text x="-227.8" y="2019.9" style="font-weight:900; fill:#eec73e;">&quot;Dot Product&quot;</text>
</g>
</svg>